<svg width="128" height="128" viewBox="0 0 128 128" fill="none" xmlns="http://www.w3.org/2000/svg">
    <path d="M9.51611 97.0645V114.194C9.51611 116.296 11.2203 118 13.3226 118H114.194C116.296 118 118 116.296 118 114.194V13.3226C118 11.2203 116.296 9.51611 114.194 9.51611H97.0645C94.9623 9.51611 93.258 11.2203 93.258 13.3226V30.4516H76.129C74.0268 30.4516 72.3226 32.1558 72.3226 34.258V51.3871H55.1935C53.0913 51.3871 51.3871 53.0913 51.3871 55.1935V72.3226H34.258C32.1558 72.3226 30.4516 74.0268 30.4516 76.129V93.258H13.3226C11.2203 93.258 9.51611 94.9623 9.51611 97.0645Z" fill="#4C5D67"/>
  </svg>
  